Coordinates
version=1
nRows=29
nColumns=24
inDegrees=yes

Units are S.I. units (second, meters, Newtons, ...)
Angles are in degrees.

endheader
time	pelvis_tilt	pelvis_list	pelvis_rotation	pelvis_tx	pelvis_ty	pelvis_tz	hip_flexion_r	hip_adduction_r	hip_rotation_r	knee_angle_r	ankle_angle_r	subtalar_angle_r	mtp_angle_r	hip_flexion_l	hip_adduction_l	hip_rotation_l	knee_angle_l	ankle_angle_l	subtalar_angle_l	mtp_angle_l	lumbar_extension	lumbar_bending	lumbar_rotation
      1.52533333	     -1.51140758	      6.55429648	      0.68785080	      0.51701045	      0.99043840	      0.31747382	     19.41774279	     -8.78099284	     -0.10687455	    -66.30451615	      3.69622707	     -8.37347539	      2.40983061	     10.06307752	     12.71905434	      4.35990234	    -13.35874025	      3.17393808	    -16.21814599	     -1.36747931	      2.04597439	     -4.83734050	      5.23582978
      1.52950000	     -1.42894670	      6.46588958	      0.83092895	      0.52185645	      0.99114430	      0.31722947	     19.90625365	     -8.66940588	     -0.08725881	    -65.87230586	      4.18037141	     -8.47484857	      2.40242768	      9.45389402	     12.63600362	      4.56369408	    -13.00638667	      3.26226858	    -16.15916100	     -1.36314835	      1.94935319	     -4.74724450	      5.10896079
      1.53366667	     -1.29695414	      6.40139957	      0.95838181	      0.52667783	      0.99188639	      0.31699790	     20.33501191	     -8.58090811	     -0.04765347	    -65.40105937	      4.60521442	     -8.56184343	      2.36461767	      8.77411637	     12.57682640	      4.81410486	    -12.61187927	      3.30845542	    -16.17488222	     -1.35914766	      1.75639518	     -4.69098275	      4.85952683
      1.53783333	     -1.21368719	      6.31555333	      1.09642636	      0.53147660	      0.99251830	      0.31676072	     20.80443928	     -8.47118811	     -0.02066274	    -64.89283164	      5.05683600	     -8.63008068	      2.33085735	      8.17257038	     12.48989360	      5.02903807	    -12.26597099	      3.39986189	    -16.12902068	     -1.35473948	      1.63260612	     -4.59041913	      4.70377886
      1.54200000	     -1.14856010	      6.22356590	      1.25047157	      0.53625511	      0.99308267	      0.31651782	     21.27665186	     -8.35806715	     -0.00833128	    -64.34272225	      5.49264347	     -8.67683126	      2.31371250	      7.60805545	     12.39271120	      5.23283724	    -11.95266993	      3.49028609	    -16.04888563	     -1.35072307	      1.52955999	     -4.49134878	      4.59625003
      1.54616667	     -1.06217791	      6.13689891	      1.39460638	      0.54103316	      0.99364379	      0.31629154	     21.71206900	     -8.24803145	      0.01196466	    -63.74922054	      5.90508527	     -8.72778987	      2.29005074	      7.01506663	     12.29654273	      5.43801056	    -11.62422083	      3.58715226	    -15.98013411	     -1.34676633	      1.39866225	     -4.40066362	      4.43716826
      1.55033333	     -0.92586352	      6.07909866	      1.52694863	      0.54582599	      0.99424193	      0.31606123	     22.08130991	     -8.17624888	      0.03261141	    -63.11742232	      6.24748385	     -8.75965793	      2.23316156	      6.35121801	     12.22803323	      5.65656089	    -11.25852502	      3.66458534	    -15.95516951	     -1.34337446	      1.20508235	     -4.34433252	      4.19063216
      1.55450000	     -0.85245656	      6.00208053	      1.67621365	      0.55057923	      0.99469892	      0.31582890	     22.50626387	     -8.08309551	      0.04431471	    -62.45343941	      6.60183711	     -8.79350227	      2.16862338	      5.78286813	     12.13808115	      5.86703350	    -10.94388725	      3.75426442	    -15.90847752	     -1.33951134	      1.08584341	     -4.26465870	      4.00468598
      1.55866667	     -0.77456102	      5.94031999	      1.82219685	      0.55532814	      0.99512003	      0.31560010	     22.91535755	     -8.00922999	      0.05517001	    -61.75876503	      6.93468584	     -8.82790073	      2.09979831	      5.21197169	     12.06032379	      6.07050229	    -10.63068673	      3.84922595	    -15.85805325	     -1.33602242	      0.95991882	     -4.19960391	      3.82952309
      1.56283333	     -0.70269261	      5.85158678	      1.98254747	      0.56006062	      0.99551764	      0.31536808	     23.30516723	     -7.90757029	      0.04783333	    -61.00943564	      7.25081361	     -8.86607053	      2.05827351	      4.66693185	     11.95056064	      6.26524989	    -10.35405244	      3.95696124	    -15.77815048	     -1.33192052	      0.84398950	     -4.10702374	      3.70512396
      1.56700000	     -0.61527700	      5.78512603	      2.12943939	      0.56479388	      0.99588756	      0.31514807	     23.67078238	     -7.83088389	      0.04837982	    -60.23653329	      7.53273295	     -8.91889601	      2.01031399	      4.09777674	     11.86068574	      6.45835077	    -10.05835443	      4.06443753	    -15.70773459	     -1.32775459	      0.70204993	     -4.03574330	      3.53758014
      1.57116667	     -0.53615113	      5.74330026	      2.26371708	      0.56951927	      0.99618327	      0.31493341	     24.04307835	     -7.78060419	      0.06197233	    -59.44709451	      7.75674937	     -8.98553882	      1.92045599	      3.53364851	     11.79617413	      6.65227631	     -9.75038309	      4.16874658	    -15.67604126	     -1.32414788	      0.56497713	     -3.99062815	      3.29719647
      1.57533333	     -0.48707015	      5.67803235	      2.42287096	      0.57421486	      0.99641917	      0.31470724	     24.42159884	     -7.71095746	      0.05015095	    -58.60902178	      7.99814104	     -9.03828353	      1.86532334	      3.03177426	     11.70531950	      6.84652141	     -9.50120074	      4.28310453	    -15.60689099	     -1.31987115	      0.46883209	     -3.92261659	      3.17208377
      1.57950000	     -0.38784179	      5.63805519	      2.55111562	      0.57893424	      0.99668788	      0.31451132	     24.73819333	     -7.66197467	      0.05728907	    -57.74675039	      8.17294638	     -9.13602925	      1.76182122	      2.45314424	     11.63463679	      7.02676870	     -9.20253981	      4.39424248	    -15.56355582	     -1.31594897	      0.30574231	     -3.88257660	      2.94703580
      1.58366667	     -0.33900023	      5.58949749	      2.70603556	      0.58361865	      0.99684974	      0.31428933	     25.09024836	     -7.61446462	      0.04003543	    -56.85237164	      8.36646470	     -9.20910603	      1.69242866	      1.95819201	     11.55713833	      7.22219483	     -8.96370511	      4.51121490	    -15.49970692	     -1.31196278	      0.20575337	     -3.82944796	      2.81571974
      1.58783333	     -0.26991391	      5.54983777	      2.84148331	      0.58831598	      0.99699508	      0.31409371	     25.40978381	     -7.57101523	      0.03208480	    -55.93317620	      8.51419156	     -9.31121734	      1.61161748	      1.43384396	     11.48403557	      7.40394615	     -8.70715971	      4.63497670	    -15.44348114	     -1.30811978	      0.07478274	     -3.78353027	      2.64540970
      1.59200000	     -0.22089133	      5.52101221	      2.97618664	      0.59299136	      0.99707514	      0.31390101	     25.74111668	     -7.54109073	      0.02437560	    -54.99145604	      8.64406982	     -9.41655677	      1.52901488	      0.93886399	     11.42201619	      7.58315728	     -8.46202412	      4.75785995	    -15.39139377	     -1.30500078	     -0.03547553	     -3.75700992	      2.48249329
      1.59616667	     -0.18533861	      5.49441768	      3.10699938	      0.59767154	      0.99710351	      0.31371131	     26.07112650	     -7.51324028	      0.01879160	    -54.01961084	      8.75124066	     -9.52960365	      1.44310372	      0.46406110	     11.36146296	      7.76123369	     -8.22923410	      4.88688620	    -15.33975086	     -1.30245456	     -0.12074098	     -3.72739673	      2.32297661
      1.60033333	     -0.12678457	      5.46878511	      3.23110597	      0.60235636	      0.99714087	      0.31354434	     26.36079911	     -7.48656167	     -0.00098490	    -53.02148769	      8.84506742	     -9.64698467	      1.35986414	     -0.03961625	     11.29579087	      7.93260342	     -7.98508625	      5.01620505	    -15.28138944	     -1.30018237	     -0.25104272	     -3.70605301	      2.17231090
      1.60450000	     -0.09784578	      5.45462463	      3.35000633	      0.60703220	      0.99707883	      0.31336993	     26.67277184	     -7.47187732	     -0.00927374	    -52.00631651	      8.92134806	     -9.76568478	      1.27012614	     -0.50032682	     11.24546500	      8.10280196	     -7.76478172	      5.15149886	    -15.23554963	     -1.29887168	     -0.33241041	     -3.68705415	      2.01790500
      1.60866667	     -0.03550696	      5.46286011	      3.44203694	      0.61171880	      0.99703431	      0.31323492	     26.94032087	     -7.46999794	      0.00130273	    -50.97235681	      8.97679536	     -9.90531811	      1.10876299	     -1.01254220	     11.21344510	      8.26317911	     -7.50995402	      5.26793175	    -15.21162510	     -1.30217247	     -0.46312778	     -3.70410791	      1.81143628
      1.61283333	     -0.04436061	      5.45180489	      3.56476158	      0.61639367	      0.99686004	      0.31306366	     27.26446051	     -7.46852019	     -0.03400111	    -49.91375643	      9.04989147	     -9.97727424	      1.02144910	     -1.42062543	     11.16473501	      8.43248880	     -7.31381661	      5.41416996	    -15.16017127	     -1.30253397	     -0.50883689	     -3.69382468	      1.72275878
      1.61700000	     -0.01870321	      5.45136642	      3.66325455	      0.62107845	      0.99670367	      0.31292772	     27.53748021	     -7.46608766	     -0.05277366	    -48.82855066	      9.09629415	    -10.06549822	      0.92615523	     -1.87614658	     11.12243141	      8.59169334	     -7.09461005	      5.55494741	    -15.11348324	     -1.30497313	     -0.59456820	     -3.69691251	      1.59418140
      1.62116667	     -0.01114415	      5.46546718	      3.75623903	      0.62577043	      0.99648394	      0.31278801	     27.81955102	     -7.48109952	     -0.07065872	    -47.72943669	      9.14450777	    -10.13469785	      0.83760923	     -2.30833199	     11.09742488	      8.74782335	     -6.88588001	      5.69392378	    -15.07354036	     -1.30893231	     -0.65276362	     -3.71042387	      1.47618299
      1.62533333	     -0.05705675	      5.50779039	      3.81778927	      0.63045267	      0.99612036	      0.31270342	     28.17122457	     -7.50997813	     -0.04304002	    -46.64785956	      9.21712374	    -10.15634492	      0.79993325	     -2.68616028	     11.10430279	      8.88188222	     -6.66569814	      5.84402611	    -15.00589139	     -1.30843145	     -0.65792143	     -3.77513874	      1.41867779
      1.62950000	     -0.00411198	      5.49695627	      3.91736929	      0.63518255	      0.99595094	      0.31255780	     28.34726146	     -7.50605075	     -0.11470690	    -45.46499732	      9.21841448	    -10.19699358	      0.71683562	     -3.16049907	     11.04599542	      9.03748110	     -6.47580030	      5.98313631	    -14.99363750	     -1.31636407	     -0.76448427	     -3.74217886	      1.27298889
      1.63366667	     -0.01674873	      5.51352206	      3.98654278	      0.63989736	      0.99560159	      0.31246957	     28.61027562	     -7.51562519	     -0.13906579	    -44.30856915	      9.25049920	    -10.19426943	      0.62948874	     -3.57125623	     11.01971961	      9.18596813	     -6.26503640	      6.12240017	    -14.97063800	     -1.32754154	     -0.81715818	     -3.77033249	      1.14572990
      1.63783333	     -0.08706889	      5.57440807	      4.03490002	      0.64460559	      0.99511532	      0.31241886	     28.94684077	     -7.55982807	     -0.11960309	    -43.17642421	      9.32521293	    -10.16388212	      0.59859023	     -3.91741833	     11.04527505	      9.31680158	     -6.06062128	      6.27261660	    -14.90724392	     -1.32953983	     -0.79727114	     -3.85883516	      1.10038009
      1.64200000	     -0.07181457	      5.56362507	      4.11185570	      0.64937223	      0.99478838	      0.31231639	     29.12419740	     -7.55305186	     -0.20911645	    -41.94286408	      9.31577495	    -10.07666501	      0.53054659	     -4.34808896	     10.98544337	      9.44987898	     -5.87562475	      6.42632459	    -14.89479810	     -1.34355573	     -0.86156885	     -3.83753177	      0.98017838
